[2026-03-14 19:29:53] [INFO] Jarvis Desktop launcher started.
[2026-03-14 19:29:53] [INFO] Runtime log path: C:\Jarvis\logs\runtime_2026-03-14_19-29-53.txt
[2026-03-14 19:29:53] [INFO] Launcher executable: C:\Users\anden\AppData\Local\Python\pythoncore-3.14-64\pythonw.exe
[2026-03-14 19:29:53] [INFO] Root directory: C:\Jarvis
[2026-03-14 19:29:53] [INFO] Target script: C:\Jarvis\jarvis_desktop_test.py
[2026-03-14 19:29:53] [INFO] Diagnostics script: C:\Jarvis\desktop\jarvis_diagnostics.pyw
[2026-03-14 19:29:53] [INFO] Recovery attempts allowed: 3
[2026-03-14 19:29:53] [INFO] Voice hook ready: C:\Jarvis\jarvis_voice.py
[2026-03-14 19:29:53] [INFO] Starting desktop renderer process. attempt=1
[2026-03-14 19:29:53] [INFO] Child executable: C:\Users\anden\AppData\Local\Python\pythoncore-3.14-64\pythonw.exe
[2026-03-14 19:29:54] [STDOUT] Jarvis Desktop Concept 1 - Version 1.02
[2026-03-14 19:29:54] [STDOUT] Hotkey: Ctrl + Alt + End
[2026-03-14 19:29:54] [STDERR] Traceback (most recent call last):
[2026-03-14 19:29:54] [STDERR]   File "C:\Jarvis\jarvis_desktop_test.py", line 44, in <module>
[2026-03-14 19:29:54] [STDERR]     raise SystemExit(main())
[2026-03-14 19:29:54] [STDERR]                      ~~~~^^
[2026-03-14 19:29:54] [STDERR]   File "C:\Jarvis\jarvis_desktop_test.py", line 36, in main
[2026-03-14 19:29:54] [STDERR]     raise RuntimeError("Jarvis test crash triggered intentionally")
[2026-03-14 19:29:54] [STDERR] RuntimeError: Jarvis test crash triggered intentionally
[2026-03-14 19:29:54] [INFO] Desktop renderer exited. exit_code=1
[2026-03-14 19:29:54] [WARN] Recovery attempt 1/3
[2026-03-14 19:29:55] [INFO] Starting desktop renderer process. attempt=2
[2026-03-14 19:29:55] [INFO] Child executable: C:\Users\anden\AppData\Local\Python\pythoncore-3.14-64\pythonw.exe
[2026-03-14 19:29:55] [STDOUT] Jarvis Desktop Concept 1 - Version 1.02
[2026-03-14 19:29:55] [STDOUT] Hotkey: Ctrl + Alt + End
[2026-03-14 19:29:55] [STDERR] Traceback (most recent call last):
[2026-03-14 19:29:55] [STDERR]   File "C:\Jarvis\jarvis_desktop_test.py", line 44, in <module>
[2026-03-14 19:29:55] [STDERR]     raise SystemExit(main())
[2026-03-14 19:29:55] [STDERR]                      ~~~~^^
[2026-03-14 19:29:55] [STDERR]   File "C:\Jarvis\jarvis_desktop_test.py", line 36, in main
[2026-03-14 19:29:55] [STDERR]     raise RuntimeError("Jarvis test crash triggered intentionally")
[2026-03-14 19:29:55] [STDERR] RuntimeError: Jarvis test crash triggered intentionally
[2026-03-14 19:29:55] [INFO] Desktop renderer exited. exit_code=1
[2026-03-14 19:29:55] [WARN] Recovery attempt 2/3
[2026-03-14 19:29:56] [INFO] Starting desktop renderer process. attempt=3
[2026-03-14 19:29:56] [INFO] Child executable: C:\Users\anden\AppData\Local\Python\pythoncore-3.14-64\pythonw.exe
[2026-03-14 19:29:57] [STDOUT] Jarvis Desktop Concept 1 - Version 1.02
[2026-03-14 19:29:57] [STDOUT] Hotkey: Ctrl + Alt + End
[2026-03-14 19:29:57] [STDERR] Traceback (most recent call last):
[2026-03-14 19:29:57] [STDERR]   File "C:\Jarvis\jarvis_desktop_test.py", line 44, in <module>
[2026-03-14 19:29:57] [STDERR]     raise SystemExit(main())
[2026-03-14 19:29:57] [STDERR]                      ~~~~^^
[2026-03-14 19:29:57] [STDERR]   File "C:\Jarvis\jarvis_desktop_test.py", line 36, in main
[2026-03-14 19:29:57] [STDERR]     raise RuntimeError("Jarvis test crash triggered intentionally")
[2026-03-14 19:29:57] [STDERR] RuntimeError: Jarvis test crash triggered intentionally
[2026-03-14 19:29:57] [INFO] Desktop renderer exited. exit_code=1
[2026-03-14 19:29:57] [ERROR] Crash log written: C:\Jarvis\logs\crash\crash_2026-03-14_19-29-57.txt
[2026-03-14 19:29:57] [INFO] Trying voice line 'Uhm..... Sir, I seem to be malfunctioning.' using voice --text --mode
[2026-03-14 19:30:02] [VOICE_STDOUT] WARNING: malfunction post-process failed, using clean TTS: No module named 'pydub'
[2026-03-14 19:30:02] [VOICE_STDERR] [mp3 @ 000002856D2A3B80] Estimating duration from bitrate, this may be inaccurate
[2026-03-14 19:30:02] [VOICE_STDERR] Input #0, mp3, from 'C:/Users/anden/AppData/Local/Temp/tmp28hbj8e5.mp3':
[2026-03-14 19:30:02] [VOICE_STDERR]   Duration: 00:00:04.13, start: 0.000000, bitrate: 48 kb/s
[2026-03-14 19:30:02] [VOICE_STDERR]   Stream #0:0: Audio: mp3 (mp3float), 24000 Hz, mono, fltp, 48 kb/s
[2026-03-14 19:30:02] [INFO] Voice line completed: Uhm..... Sir, I seem to be malfunctioning.
[2026-03-14 19:30:02] [INFO] Failure voice step 1/3 success=True line=Uhm..... Sir, I seem to be malfunctioning.
[2026-03-14 19:30:03] [INFO] Trying voice line 'Attempting restart.' using voice --text --mode
[2026-03-14 19:30:06] [VOICE_STDOUT] WARNING: malfunction post-process failed, using clean TTS: No module named 'pydub'
[2026-03-14 19:30:06] [VOICE_STDERR] [mp3 @ 000001FC853DE080] Estimating duration from bitrate, this may be inaccurate
[2026-03-14 19:30:06] [VOICE_STDERR] Input #0, mp3, from 'C:/Users/anden/AppData/Local/Temp/tmpvo0lxrdh.mp3':
[2026-03-14 19:30:06] [VOICE_STDERR]   Duration: 00:00:02.14, start: 0.000000, bitrate: 48 kb/s
[2026-03-14 19:30:06] [VOICE_STDERR]   Stream #0:0: Audio: mp3 (mp3float), 24000 Hz, mono, fltp, 48 kb/s
[2026-03-14 19:30:06] [INFO] Voice line completed: Attempting restart.
[2026-03-14 19:30:06] [INFO] Failure voice step 2/3 success=True line=Attempting restart.
[2026-03-14 19:30:07] [INFO] Trying voice line 'Restart failed.' using voice --text --mode
[2026-03-14 19:30:10] [VOICE_STDOUT] WARNING: malfunction post-process failed, using clean TTS: No module named 'pydub'
[2026-03-14 19:30:10] [VOICE_STDERR] [mp3 @ 000001DDA1BF0C00] Estimating duration from bitrate, this may be inaccurate
[2026-03-14 19:30:10] [VOICE_STDERR] Input #0, mp3, from 'C:/Users/anden/AppData/Local/Temp/tmpvugd1w_f.mp3':
[2026-03-14 19:30:10] [VOICE_STDERR]   Duration: 00:00:02.06, start: 0.000000, bitrate: 48 kb/s
[2026-03-14 19:30:10] [VOICE_STDERR]   Stream #0:0: Audio: mp3 (mp3float), 24000 Hz, mono, fltp, 48 kb/s
[2026-03-14 19:30:10] [INFO] Voice line completed: Restart failed.
[2026-03-14 19:30:10] [INFO] Failure voice step 3/3 success=True line=Restart failed.
[2026-03-14 19:30:11] [INFO] Diagnostics process launched.
